<mxfile host="app.diagrams.net" modified="2024-06-20T13:56:05.227Z" agent="Mozilla/5.0 (Windows NT 10.0; Win64; x64) AppleWebKit/537.36 (KHTML, like Gecko) Chrome/126.0.0.0 Safari/537.36 Edg/126.0.0.0" etag="l446C-OabrMIJq_hqPTi" version="24.5.5" type="device">
  <diagram id="C5RBs43oDa-KdzZeNtuy" name="Page-1">
    <mxGraphModel dx="854" dy="741" grid="1" gridSize="10" guides="1" tooltips="1" connect="1" arrows="1" fold="1" page="1" pageScale="1" pageWidth="827" pageHeight="1169" math="0" shadow="0">
      <root>
        <mxCell id="WIyWlLk6GJQsqaUBKTNV-0" />
        <mxCell id="WIyWlLk6GJQsqaUBKTNV-1" parent="WIyWlLk6GJQsqaUBKTNV-0" />
        <mxCell id="pbQSco5NDLq_I0UOAvCQ-1" style="edgeStyle=orthogonalEdgeStyle;rounded=0;orthogonalLoop=1;jettySize=auto;html=1;exitX=0.5;exitY=1;exitDx=0;exitDy=0;entryX=0.5;entryY=0;entryDx=0;entryDy=0;endArrow=block;endFill=0;" edge="1" parent="WIyWlLk6GJQsqaUBKTNV-1" source="WIyWlLk6GJQsqaUBKTNV-3" target="pbQSco5NDLq_I0UOAvCQ-0">
          <mxGeometry relative="1" as="geometry" />
        </mxCell>
        <mxCell id="WIyWlLk6GJQsqaUBKTNV-3" value="Nutzer hat die App gestartet" style="rounded=1;whiteSpace=wrap;html=1;fontSize=12;glass=0;strokeWidth=1;shadow=0;" parent="WIyWlLk6GJQsqaUBKTNV-1" vertex="1">
          <mxGeometry x="80" y="40" width="120" height="40" as="geometry" />
        </mxCell>
        <mxCell id="pbQSco5NDLq_I0UOAvCQ-3" style="edgeStyle=orthogonalEdgeStyle;shape=connector;rounded=0;orthogonalLoop=1;jettySize=auto;html=1;exitX=0.5;exitY=1;exitDx=0;exitDy=0;entryX=0.5;entryY=0;entryDx=0;entryDy=0;strokeColor=default;align=center;verticalAlign=middle;fontFamily=Helvetica;fontSize=11;fontColor=default;labelBackgroundColor=default;endArrow=block;endFill=0;" edge="1" parent="WIyWlLk6GJQsqaUBKTNV-1" source="pbQSco5NDLq_I0UOAvCQ-0" target="pbQSco5NDLq_I0UOAvCQ-2">
          <mxGeometry relative="1" as="geometry" />
        </mxCell>
        <mxCell id="pbQSco5NDLq_I0UOAvCQ-0" value="Nutzer befindet sich im Hauptmen체 (nach Login oder Registrierung)" style="rounded=1;whiteSpace=wrap;html=1;fontSize=12;glass=0;strokeWidth=1;shadow=0;" vertex="1" parent="WIyWlLk6GJQsqaUBKTNV-1">
          <mxGeometry x="80" y="110" width="120" height="70" as="geometry" />
        </mxCell>
        <mxCell id="pbQSco5NDLq_I0UOAvCQ-13" style="edgeStyle=orthogonalEdgeStyle;shape=connector;rounded=0;orthogonalLoop=1;jettySize=auto;html=1;exitX=0.5;exitY=1;exitDx=0;exitDy=0;entryX=0.5;entryY=0;entryDx=0;entryDy=0;strokeColor=default;align=center;verticalAlign=middle;fontFamily=Helvetica;fontSize=11;fontColor=default;labelBackgroundColor=default;endArrow=block;endFill=0;" edge="1" parent="WIyWlLk6GJQsqaUBKTNV-1" source="pbQSco5NDLq_I0UOAvCQ-2" target="pbQSco5NDLq_I0UOAvCQ-12">
          <mxGeometry relative="1" as="geometry" />
        </mxCell>
        <mxCell id="pbQSco5NDLq_I0UOAvCQ-2" value="Nutzer w채hlt &quot;Check friend requests&quot;" style="rounded=1;whiteSpace=wrap;html=1;fontSize=12;glass=0;strokeWidth=1;shadow=0;" vertex="1" parent="WIyWlLk6GJQsqaUBKTNV-1">
          <mxGeometry x="80" y="210" width="120" height="40" as="geometry" />
        </mxCell>
        <mxCell id="pbQSco5NDLq_I0UOAvCQ-9" style="edgeStyle=orthogonalEdgeStyle;shape=connector;rounded=0;orthogonalLoop=1;jettySize=auto;html=1;exitX=0;exitY=0.5;exitDx=0;exitDy=0;entryX=0;entryY=0.5;entryDx=0;entryDy=0;strokeColor=default;align=center;verticalAlign=middle;fontFamily=Helvetica;fontSize=11;fontColor=default;labelBackgroundColor=default;endArrow=block;endFill=0;" edge="1" parent="WIyWlLk6GJQsqaUBKTNV-1" source="pbQSco5NDLq_I0UOAvCQ-5" target="pbQSco5NDLq_I0UOAvCQ-0">
          <mxGeometry relative="1" as="geometry">
            <Array as="points">
              <mxPoint x="50" y="415" />
              <mxPoint x="50" y="145" />
            </Array>
          </mxGeometry>
        </mxCell>
        <mxCell id="pbQSco5NDLq_I0UOAvCQ-10" value="Ja" style="edgeLabel;html=1;align=center;verticalAlign=middle;resizable=0;points=[];fontFamily=Helvetica;fontSize=11;fontColor=default;labelBackgroundColor=default;" vertex="1" connectable="0" parent="pbQSco5NDLq_I0UOAvCQ-9">
          <mxGeometry x="-0.8039" relative="1" as="geometry">
            <mxPoint x="18" y="-15" as="offset" />
          </mxGeometry>
        </mxCell>
        <mxCell id="pbQSco5NDLq_I0UOAvCQ-16" style="edgeStyle=orthogonalEdgeStyle;shape=connector;rounded=0;orthogonalLoop=1;jettySize=auto;html=1;exitX=0.5;exitY=1;exitDx=0;exitDy=0;entryX=0.5;entryY=0;entryDx=0;entryDy=0;strokeColor=default;align=center;verticalAlign=middle;fontFamily=Helvetica;fontSize=11;fontColor=default;labelBackgroundColor=default;endArrow=block;endFill=0;" edge="1" parent="WIyWlLk6GJQsqaUBKTNV-1" source="pbQSco5NDLq_I0UOAvCQ-5" target="pbQSco5NDLq_I0UOAvCQ-15">
          <mxGeometry relative="1" as="geometry" />
        </mxCell>
        <mxCell id="pbQSco5NDLq_I0UOAvCQ-17" value="Nein" style="edgeLabel;html=1;align=center;verticalAlign=middle;resizable=0;points=[];fontFamily=Helvetica;fontSize=11;fontColor=default;labelBackgroundColor=default;" vertex="1" connectable="0" parent="pbQSco5NDLq_I0UOAvCQ-16">
          <mxGeometry x="-0.4" relative="1" as="geometry">
            <mxPoint x="20" y="8" as="offset" />
          </mxGeometry>
        </mxCell>
        <mxCell id="pbQSco5NDLq_I0UOAvCQ-5" value="Nutzer&amp;nbsp;&lt;div&gt;w채hlt &quot;Go&amp;nbsp;&lt;/div&gt;&lt;div&gt;back to&amp;nbsp;&lt;/div&gt;&lt;div&gt;main menu&quot;?&lt;/div&gt;" style="rhombus;whiteSpace=wrap;html=1;fontFamily=Helvetica;fontSize=11;fontColor=default;labelBackgroundColor=default;" vertex="1" parent="WIyWlLk6GJQsqaUBKTNV-1">
          <mxGeometry x="85" y="360" width="110" height="110" as="geometry" />
        </mxCell>
        <mxCell id="pbQSco5NDLq_I0UOAvCQ-14" style="edgeStyle=orthogonalEdgeStyle;shape=connector;rounded=0;orthogonalLoop=1;jettySize=auto;html=1;exitX=0.5;exitY=1;exitDx=0;exitDy=0;entryX=0.5;entryY=0;entryDx=0;entryDy=0;strokeColor=default;align=center;verticalAlign=middle;fontFamily=Helvetica;fontSize=11;fontColor=default;labelBackgroundColor=default;endArrow=block;endFill=0;" edge="1" parent="WIyWlLk6GJQsqaUBKTNV-1" source="pbQSco5NDLq_I0UOAvCQ-12" target="pbQSco5NDLq_I0UOAvCQ-5">
          <mxGeometry relative="1" as="geometry" />
        </mxCell>
        <mxCell id="pbQSco5NDLq_I0UOAvCQ-12" value="Anzeige aller Freundschafts-anfragen" style="rounded=1;whiteSpace=wrap;html=1;fontSize=12;glass=0;strokeWidth=1;shadow=0;" vertex="1" parent="WIyWlLk6GJQsqaUBKTNV-1">
          <mxGeometry x="80" y="280" width="120" height="50" as="geometry" />
        </mxCell>
        <mxCell id="pbQSco5NDLq_I0UOAvCQ-19" style="edgeStyle=orthogonalEdgeStyle;shape=connector;rounded=0;orthogonalLoop=1;jettySize=auto;html=1;exitX=1;exitY=0.5;exitDx=0;exitDy=0;entryX=0;entryY=0.5;entryDx=0;entryDy=0;strokeColor=default;align=center;verticalAlign=middle;fontFamily=Helvetica;fontSize=11;fontColor=default;labelBackgroundColor=default;endArrow=block;endFill=0;" edge="1" parent="WIyWlLk6GJQsqaUBKTNV-1" source="pbQSco5NDLq_I0UOAvCQ-15" target="pbQSco5NDLq_I0UOAvCQ-18">
          <mxGeometry relative="1" as="geometry" />
        </mxCell>
        <mxCell id="pbQSco5NDLq_I0UOAvCQ-20" value="Ja" style="edgeLabel;html=1;align=center;verticalAlign=middle;resizable=0;points=[];fontFamily=Helvetica;fontSize=11;fontColor=default;labelBackgroundColor=default;" vertex="1" connectable="0" parent="pbQSco5NDLq_I0UOAvCQ-19">
          <mxGeometry x="-0.56" y="2" relative="1" as="geometry">
            <mxPoint x="9" y="-12" as="offset" />
          </mxGeometry>
        </mxCell>
        <mxCell id="pbQSco5NDLq_I0UOAvCQ-23" style="edgeStyle=orthogonalEdgeStyle;shape=connector;rounded=0;orthogonalLoop=1;jettySize=auto;html=1;exitX=0.5;exitY=1;exitDx=0;exitDy=0;entryX=0.5;entryY=0;entryDx=0;entryDy=0;strokeColor=default;align=center;verticalAlign=middle;fontFamily=Helvetica;fontSize=11;fontColor=default;labelBackgroundColor=default;endArrow=block;endFill=0;" edge="1" parent="WIyWlLk6GJQsqaUBKTNV-1" source="pbQSco5NDLq_I0UOAvCQ-15" target="pbQSco5NDLq_I0UOAvCQ-22">
          <mxGeometry relative="1" as="geometry" />
        </mxCell>
        <mxCell id="pbQSco5NDLq_I0UOAvCQ-24" value="Nein" style="edgeLabel;html=1;align=center;verticalAlign=middle;resizable=0;points=[];fontFamily=Helvetica;fontSize=11;fontColor=default;labelBackgroundColor=default;" vertex="1" connectable="0" parent="pbQSco5NDLq_I0UOAvCQ-23">
          <mxGeometry x="-0.4648" y="2" relative="1" as="geometry">
            <mxPoint x="18" y="7" as="offset" />
          </mxGeometry>
        </mxCell>
        <mxCell id="pbQSco5NDLq_I0UOAvCQ-15" value="Nutzer w채hlt&lt;div&gt;&quot;Refresh&quot;?&lt;/div&gt;" style="rhombus;whiteSpace=wrap;html=1;fontFamily=Helvetica;fontSize=11;fontColor=default;labelBackgroundColor=default;" vertex="1" parent="WIyWlLk6GJQsqaUBKTNV-1">
          <mxGeometry x="100" y="504.5" width="80" height="80" as="geometry" />
        </mxCell>
        <mxCell id="pbQSco5NDLq_I0UOAvCQ-21" style="edgeStyle=orthogonalEdgeStyle;shape=connector;rounded=0;orthogonalLoop=1;jettySize=auto;html=1;exitX=0.5;exitY=0;exitDx=0;exitDy=0;entryX=1;entryY=0.5;entryDx=0;entryDy=0;strokeColor=default;align=center;verticalAlign=middle;fontFamily=Helvetica;fontSize=11;fontColor=default;labelBackgroundColor=default;endArrow=block;endFill=0;" edge="1" parent="WIyWlLk6GJQsqaUBKTNV-1" source="pbQSco5NDLq_I0UOAvCQ-18" target="pbQSco5NDLq_I0UOAvCQ-12">
          <mxGeometry relative="1" as="geometry" />
        </mxCell>
        <mxCell id="pbQSco5NDLq_I0UOAvCQ-18" value="Anfragen werden aktualisiert" style="rounded=1;whiteSpace=wrap;html=1;fontSize=12;glass=0;strokeWidth=1;shadow=0;" vertex="1" parent="WIyWlLk6GJQsqaUBKTNV-1">
          <mxGeometry x="230" y="524.5" width="120" height="40" as="geometry" />
        </mxCell>
        <mxCell id="pbQSco5NDLq_I0UOAvCQ-26" style="edgeStyle=orthogonalEdgeStyle;shape=connector;rounded=0;orthogonalLoop=1;jettySize=auto;html=1;exitX=0.5;exitY=1;exitDx=0;exitDy=0;entryX=0.5;entryY=0;entryDx=0;entryDy=0;strokeColor=default;align=center;verticalAlign=middle;fontFamily=Helvetica;fontSize=11;fontColor=default;labelBackgroundColor=default;endArrow=block;endFill=0;" edge="1" parent="WIyWlLk6GJQsqaUBKTNV-1" source="pbQSco5NDLq_I0UOAvCQ-22" target="pbQSco5NDLq_I0UOAvCQ-25">
          <mxGeometry relative="1" as="geometry" />
        </mxCell>
        <mxCell id="pbQSco5NDLq_I0UOAvCQ-22" value="Nutzer w채hlt Anfrage von anderem Nutzer aus" style="rounded=1;whiteSpace=wrap;html=1;fontSize=12;glass=0;strokeWidth=1;shadow=0;" vertex="1" parent="WIyWlLk6GJQsqaUBKTNV-1">
          <mxGeometry x="80" y="620" width="120" height="50" as="geometry" />
        </mxCell>
        <mxCell id="pbQSco5NDLq_I0UOAvCQ-28" style="edgeStyle=orthogonalEdgeStyle;shape=connector;rounded=0;orthogonalLoop=1;jettySize=auto;html=1;exitX=1;exitY=0.5;exitDx=0;exitDy=0;entryX=0;entryY=0.5;entryDx=0;entryDy=0;strokeColor=default;align=center;verticalAlign=middle;fontFamily=Helvetica;fontSize=11;fontColor=default;labelBackgroundColor=default;endArrow=block;endFill=0;" edge="1" parent="WIyWlLk6GJQsqaUBKTNV-1" source="pbQSco5NDLq_I0UOAvCQ-25" target="pbQSco5NDLq_I0UOAvCQ-27">
          <mxGeometry relative="1" as="geometry" />
        </mxCell>
        <mxCell id="pbQSco5NDLq_I0UOAvCQ-29" value="Nein" style="edgeLabel;html=1;align=center;verticalAlign=middle;resizable=0;points=[];fontFamily=Helvetica;fontSize=11;fontColor=default;labelBackgroundColor=default;rotation=0;" vertex="1" connectable="0" parent="pbQSco5NDLq_I0UOAvCQ-28">
          <mxGeometry x="-0.3" y="1" relative="1" as="geometry">
            <mxPoint x="1" y="-19" as="offset" />
          </mxGeometry>
        </mxCell>
        <mxCell id="pbQSco5NDLq_I0UOAvCQ-31" style="edgeStyle=orthogonalEdgeStyle;shape=connector;rounded=0;orthogonalLoop=1;jettySize=auto;html=1;exitX=0.5;exitY=1;exitDx=0;exitDy=0;entryX=0.5;entryY=0;entryDx=0;entryDy=0;strokeColor=default;align=center;verticalAlign=middle;fontFamily=Helvetica;fontSize=11;fontColor=default;labelBackgroundColor=default;endArrow=block;endFill=0;" edge="1" parent="WIyWlLk6GJQsqaUBKTNV-1" source="pbQSco5NDLq_I0UOAvCQ-25" target="pbQSco5NDLq_I0UOAvCQ-30">
          <mxGeometry relative="1" as="geometry" />
        </mxCell>
        <mxCell id="pbQSco5NDLq_I0UOAvCQ-32" value="Ja" style="edgeLabel;html=1;align=center;verticalAlign=middle;resizable=0;points=[];fontFamily=Helvetica;fontSize=11;fontColor=default;labelBackgroundColor=default;" vertex="1" connectable="0" parent="pbQSco5NDLq_I0UOAvCQ-31">
          <mxGeometry x="-0.2" y="-3" relative="1" as="geometry">
            <mxPoint x="23" as="offset" />
          </mxGeometry>
        </mxCell>
        <mxCell id="pbQSco5NDLq_I0UOAvCQ-25" value="Nutzer&lt;div&gt;akzeptiert&lt;/div&gt;&lt;div&gt;Anfrage&lt;/div&gt;" style="rhombus;whiteSpace=wrap;html=1;fontFamily=Helvetica;fontSize=11;fontColor=default;labelBackgroundColor=default;" vertex="1" parent="WIyWlLk6GJQsqaUBKTNV-1">
          <mxGeometry x="100" y="710" width="80" height="80" as="geometry" />
        </mxCell>
        <mxCell id="pbQSco5NDLq_I0UOAvCQ-27" value="Anfrage abgelehnt" style="rounded=1;whiteSpace=wrap;html=1;fontSize=12;glass=0;strokeWidth=1;shadow=0;" vertex="1" parent="WIyWlLk6GJQsqaUBKTNV-1">
          <mxGeometry x="220" y="730" width="120" height="40" as="geometry" />
        </mxCell>
        <mxCell id="pbQSco5NDLq_I0UOAvCQ-30" value="Anfrage angenommen" style="rounded=1;whiteSpace=wrap;html=1;fontSize=12;glass=0;strokeWidth=1;shadow=0;" vertex="1" parent="WIyWlLk6GJQsqaUBKTNV-1">
          <mxGeometry x="80" y="820" width="120" height="40" as="geometry" />
        </mxCell>
      </root>
    </mxGraphModel>
  </diagram>
</mxfile>
